<?xml version="1.0" encoding="UTF-8"?>
<svg id="_레이어_1" data-name="레이어 1" xmlns="http://www.w3.org/2000/svg" viewBox="0 0 502.85 126.98">
  <defs>
    <style>
      .cls-1 {
      fill: #004098;
      }

      .cls-2 {
      fill: #001755;
      }
    </style>
  </defs>
  <g>
    <path fill="#004098"
      d="M61.43,88.7l-5.05-.89,3.61,3.35c.06-.02.12-.04.19-.04.16,0,.31.05.42.16.24.22.25.59.03.83-.11.12-.25.18-.41.19-.02,0-.04,0-.06,0-.14,0-.26-.06-.36-.16-.12-.11-.18-.25-.19-.41,0-.07.01-.13.03-.19l-3.61-3.35,1.26,4.97,8.23,5.88c.3.21.69.23,1.01.05.24-.14.53-.36.85-.7.32-.34.51-.65.63-.9.16-.33.11-.72-.12-1l-6.47-7.78Z" />
    <path fill="#004098"
      d="M59.08,96.48c-.23.28-.28.67-.12.99.12.25.32.56.64.91.31.34.6.56.84.7.07.04.16.07.24.09.27.07.54.02.77-.14l1.54-1.1-3.21-2.29-.7.84Z" />
    <path fill="#004098"
      d="M66.8,91.11c.07,0,.13.03.2.04l3.6-3.35-5.04.89-1.69,2.03,3.44,4.13,2.38-1.7,1.26-4.97-3.6,3.35c.02.06.03.13.03.2,0,.16-.07.3-.19.41-.1.1-.23.15-.36.16h-.06c-.15,0-.3-.07-.41-.19-.22-.24-.2-.61.04-.83.12-.11.26-.16.42-.16Z" />
    <path fill="#004098"
      d="M57.69,117.86c0,.82.66,1.48,1.48,1.48h2.98v-1.48h-2.82v-4.01h2.82v-1.48h-4.46v5.49Z" />
    <polygon fill="#004098"
      points="65.51 116.04 64.62 116.04 64.62 112.37 62.98 112.37 62.98 123.38 64.62 123.38 64.62 117.52 65.51 117.52 65.51 123.38 67.15 123.38 67.15 112.37 65.51 112.37 65.51 116.04" />
    <path fill="#004098"
      d="M44.92,108.94l-1.16,3.86c-.24.78.21,1.61.99,1.84l4.08,1.23.43-1.42-3.93-1.18,1.16-3.86-1.57-.47Z" />
    <polygon fill="#004098"
      points="52.74 111.29 51.17 110.82 49.59 116.1 51.15 116.57 51.79 114.47 53.19 114.89 53.61 113.47 52.21 113.05 52.74 111.29" />
    <path fill="#004098"
      d="M42.99,118.32c-.24.78.21,1.61.99,1.84l5.59,1.68,1.33-4.41-7-2.11-.9,3ZM45.03,117.21l3.87,1.16-.47,1.58-3.87-1.16.47-1.58Z" />
    <polygon fill="#004098"
      points="93.86 112.13 91.65 108.44 90.25 109.28 92.46 112.97 91.38 113.62 89.17 109.93 87.76 110.78 89.97 114.46 88.6 115.28 89.36 116.55 97.68 111.57 96.91 110.3 93.86 112.13" />
    <path fill="#004098"
      d="M94.16,109.85l1.41-.84-2.56-4.27c-.42-.7-1.33-.93-2.03-.51l-6.28,3.76.76,1.27,6.14-3.68,2.56,4.27Z" />
    <polygon fill="#004098"
      points="81.92 111.06 80.51 111.44 80.03 109.66 78.45 110.08 79.87 115.41 81.45 114.98 80.89 112.87 82.3 112.49 81.92 111.06" />
    <path fill="#004098"
      d="M80.26,116.24l-5.64,1.5.38,1.43,5.49-1.46.8,3.01,1.58-.42-.8-3.01c-.21-.79-1.02-1.26-1.81-1.05Z" />
    <path fill="#004098"
      d="M76.16,116.66c1.49-.4,2.4-1.83,2.04-3.2-.17-.64-.59-1.15-1.14-1.48l1.17-.31-.38-1.43-2.38.64-.31-1.17-1.58.42.31,1.17-2.38.64.38,1.43,1.17-.31c-.32.56-.43,1.21-.26,1.85.37,1.37,1.87,2.16,3.36,1.76ZM74.39,114.48c-.15-.58.22-1.18.84-1.34.62-.16,1.24.17,1.39.75.15.58-.22,1.18-.84,1.34-.62.16-1.24-.17-1.39-.75Z" />
    <path fill="#004098"
      d="M30,106.75l3.29,2.12-.39.6c-1.39-.58-2.79-.23-3.43.77-.74,1.15-.28,2.88,1.31,3.9,1.59,1.02,3.35.74,4.1-.42.62-.96.4-2.32-.62-3.34l.4-.62,3.29,2.12.78-1.21-7.95-5.13-.78,1.21ZM33.44,112.8c-.32.5-1.12.59-1.87.11-.75-.48-.99-1.25-.67-1.75.32-.5,1.12-.59,1.87-.11.75.48.99,1.25.67,1.75Z" />
    <path fill="#004098"
      d="M38.37,104l-1.38-.89-.65,1.01-2.95-1.9-.78,1.21,2.48,1.6c-.7.2-1.66.06-2.99-.8l-.77,1.2c1.98,1.28,3.48,1.36,4.55.94.06,1.15.75,2.48,2.73,3.76l.77-1.2c-1.34-.86-1.86-1.68-1.96-2.4l2.48,1.6.78-1.21-2.95-1.91.65-1.01Z" />
    <path fill="#004098"
      d="M50.15,56.37c-.03.14-.04.29-.04.43v11.75c0,1.23.98,2.23,2.2,2.23s2.2-1,2.2-2.23v-10.52h0c0-.86.67-1.55,1.5-1.55s1.5.69,1.5,1.54h0v10.53c0,1.23.98,2.23,2.19,2.23s2.2-1,2.2-2.23v-10.52.02c0-.89.7-1.61,1.57-1.61s1.56.72,1.56,1.61v-.02s0,10.52,0,10.52c0,1.23.98,2.23,2.2,2.23s2.2-1,2.2-2.23v-10.52h0c0-.86.69-1.57,1.53-1.57s1.53.71,1.53,1.58h0s0,10.52,0,10.52c0,1.23.98,2.23,2.2,2.23s2.2-1,2.2-2.23v-11.75h0c0-2.53-2.01-4.59-4.48-4.59h-6.7v-2.03c0-1.23-.98-2.23-2.2-2.23s-2.19,1-2.19,2.23v2.03h-6.7c-2.33,0-4.25,1.83-4.46,4.16Z" />
    <path fill="#004098"
      d="M51.89,32.3c1.38-.84,3.17-.5,3.17-.5,0,0-2.54.18-3.01.86-.32.46.56.98,2.62.49,2.21-.53,3.75-2.36,3.75-2.36-1.91.44-4.04-.27-5.71.51-1.15.54-.82,1-.82,1Z" />
    <path fill="#004098"
      d="M53.03,92.58c-2.56,2.2-6.26,1.18-6.26,1.18,0,0,4.44-.28,5.73-1.63,1.38.5,2.8.92,4.27,1.23l-.02-.06-.34-1.33c-2.8-.65-5.44-1.68-7.9-3.02-1.72-2.83-.68-5.85-.68-5.85,0,0,.08,4.72,1.52,5.59.98.59,1.94-.96,1.21-4.55-.79-3.92-3.65-6.91-3.65-6.91.12,2.57-1.98,7.24-.47,10.23.07.14.14.27.21.39-2.09-1.34-4.01-2.93-5.72-4.72-.68-2.97,1.17-5.36,1.17-5.36,0,0-1.36,4.2-.34,5.35.7.79,2.02-.32,2.47-3.69.49-3.68-1.16-7.1-1.16-7.1-.68,2.3-3.97,5.85-3.54,8.91.02.14.04.28.07.4-1.53-1.82-2.86-3.81-3.95-5.95.02,0,.04,0,.04,0-.14-2.72,1.78-4.61,1.78-4.61,0,0-1.77,3.54-1.08,4.69.47.79,2.02.3,2.9-2.63.96-3.2-.2-6.75-.2-6.75-.91,1.95-4.21,4.67-4.3,7.43h0c-.86-2-1.52-4.12-1.94-6.33,0,0,.01,0,.01,0,.23-2.77,2.43-4.4,2.43-4.4,0,0-2.27,3.33-1.73,4.59.37.86,1.77.22,3.05-2.62,1.4-3.09.96-6.48.96-6.48-1.07,1.66-4.18,3.69-5.12,6.11-.1-1.03-.16-2.07-.16-3.13,0-1.46.11-2.9.3-4.31.59-2.63,2.91-3.92,2.91-3.92,0,0-2.62,2.92-2.27,4.21.24.88,1.68.44,3.29-2.13,1.76-2.81,1.76-6.13,1.76-6.13-1.02,1.2-3.39,2.46-4.89,4.08.61-2.25,1.46-4.41,2.53-6.43,1.44-1.86,3.76-2.04,3.76-2.04,0,0-3.17,1.36-3.37,2.52-.13.79,1.18.97,3.41-.48,2.44-1.59,3.68-4.24,3.68-4.24-1.4.64-4.14.74-5.98,1.73,1.16-1.76,2.49-3.39,3.97-4.88,1.84-1.25,3.97-.77,3.97-.77,0,0-3.3.35-3.81,1.36-.34.69.81,1.23,3.28.52,2.69-.77,4.58-2.86,4.58-2.86-1.46.2-4.02-.5-5.99-.11,1.44-1.2,2.98-2.28,4.62-3.2,1.61-.54,3.08.24,3.08.24,0,0-2.53-.41-3.11.24-.4.44.35,1.08,2.33,1.05,2.16-.03,3.99-1.2,3.99-1.2-1.15-.15-2.94-1.21-4.51-1.29.6-.31,1.37-.72,1.37-.82,0-.16-1.39.44-1.87.66.33-.22.7-.52,1.11-.95,1.59-1.66,2.07-3.93,2.07-3.93-1.17.91-4.03,1.56-4.98,3.21-.66,1.15.01,1.45.01,1.45.56-1.76,2.58-2.34,2.58-2.34,0,0-2.25,1.59-2.22,2.59,0,.29.25.42.63.33-.26.11-.42.22-.51.33-1.41.78-2.75,1.66-4.02,2.63.31-.34.65-.81.99-1.46,1.15-2.22.96-4.72.96-4.72-.95,1.3-3.73,2.85-4.21,4.86-.34,1.39.45,1.51.45,1.51.05-2,1.98-3.22,1.98-3.22,0,0-1.86,2.33-1.53,3.37.09.28.34.35.68.19-.35.28-.69.57-1.03.87-.03.02-.06.03-.09.04-.65.39-.9.71-.99.96-.9.87-1.76,1.79-2.55,2.77.35-.53.69-1.37.93-2.56.6-3.1-.53-6.07-.53-6.07-.68,1.92-3.5,4.8-3.37,7.41.09,1.81,1.09,1.67,1.09,1.67-.65-2.45,1.24-4.62,1.24-4.62,0,0-1.42,3.5-.64,4.64.23.33.6.3.99-.1-.84,1.07-1.62,2.18-2.33,3.35-.17.22-.28.42-.34.58-.41.71-.79,1.44-1.15,2.18.16-.7.2-1.7,0-3.05-.52-3.52-2.78-6.25-2.78-6.25,0,2.3-1.84,6.42-.74,9.15.76,1.89,1.74,1.36,1.74,1.36-1.58-2.35-.43-5.38-.43-5.38,0,0-.18,4.26,1.05,5.17.25.19.5.14.72-.08-.86,1.97-1.53,4.04-1.99,6.19-.09.33-.14.6-.15.83-.08.45-.17.9-.24,1.36-.03-.75-.27-1.77-.86-3.06-1.54-3.39-4.64-5.46-4.64-5.46.66,2.31-.09,6.98,1.83,9.39,1.32,1.67,2.19.86,2.19.86-2.29-1.9-1.96-5.27-1.96-5.27,0,0,1.02,4.33,2.54,4.88.37.13.66-.03.81-.44-.13,1.2-.22,2.42-.21,3.66,0,1.17.08,2.32.21,3.45-.28-.51-.65-1.08-1.15-1.7-2.33-2.89-5.86-4.13-5.86-4.13,1.22,2.07,1.66,6.78,4.12,8.64,1.7,1.29,2.33.28,2.33.28-2.7-1.26-3.22-4.61-3.22-4.61,0,0,2.07,3.93,3.68,4.09.19.02.35-.03.46-.13.32,1.7.78,3.35,1.35,4.94-.44-.4-1.01-.83-1.71-1.26-3.22-1.97-7.02-1.95-7.02-1.95,1.87,1.56,3.9,5.92,6.89,6.86,2.07.65,2.33-.53,2.33-.53-3.01-.29-4.65-3.32-4.65-3.32,0,0,3.33,3.06,4.92,2.66.09-.02.16-.06.22-.1.7,1.54,1.53,3.01,2.46,4.4-.65-.34-1.54-.65-2.67-.9-3.91-.85-7.69.5-7.69.5,2.41.91,5.97,4.55,9.28,4.45,2.29-.07,2.14-1.34,2.14-1.34-3.11.76-5.81-1.69-5.81-1.69,0,0,4.39,1.89,5.85.94.08-.05.14-.11.18-.17,1.03,1.34,2.17,2.6,3.4,3.76-.45-.05-.95-.08-1.5-.08-4.13,0-7.66,2.19-7.66,2.19,2.64.39,7.03,3.29,10.35,2.46,2.3-.57,1.87-1.82,1.87-1.82-2.97,1.45-6.24-.43-6.24-.43,0,0,4.21.82,5.81-.11,1.55,1.18,3.22,2.23,4.98,3.11-.4.07-.84.16-1.31.28-4.08,1.06-6.99,4.13-6.99,4.13,2.7-.29,7.78,1.44,10.84-.23,2.12-1.16,1.38-2.28,1.38-2.28Z" />
    <path fill="#004098"
      d="M72.3,33.15c2.06.49,2.95-.03,2.62-.49-.47-.67-3.01-.86-3.01-.86,0,0,1.79-.34,3.17.5,0,0,.33-.46-.82-1-1.67-.78-3.81-.07-5.71-.51,0,0,1.54,1.83,3.75,2.36Z" />
    <path fill="#004098"
      d="M93.6,73.01c.58-1.59,1.03-3.24,1.35-4.93.12.1.27.15.46.13,1.61-.16,3.69-4.09,3.69-4.09,0,0-.52,3.35-3.22,4.61,0,0,.63,1.01,2.33-.28,2.46-1.86,2.9-6.57,4.12-8.64,0,0-3.53,1.23-5.86,4.13-.5.62-.87,1.18-1.15,1.69.13-1.13.2-2.28.2-3.45,0-1.23-.08-2.44-.21-3.64.15.4.45.55.81.42,1.52-.56,2.54-4.88,2.54-4.88,0,0,.33,3.37-1.96,5.27,0,0,.86.82,2.19-.86,1.91-2.41,1.17-7.09,1.83-9.39,0,0-3.11,2.07-4.64,5.46-.58,1.27-.82,2.29-.86,3.03-.06-.46-.16-.91-.24-1.36-.01-.2-.05-.45-.13-.75-.45-2.17-1.13-4.25-1.99-6.23.22.21.47.25.72.07,1.22-.91,1.05-5.17,1.05-5.17,0,0,1.15,3.03-.43,5.38,0,0,.98.53,1.74-1.36,1.1-2.73-.75-6.85-.74-9.15,0,0-2.26,2.72-2.78,6.25-.2,1.33-.16,2.33,0,3.03-.35-.74-.74-1.47-1.15-2.18-.06-.16-.17-.34-.32-.55-.7-1.17-1.48-2.29-2.33-3.36.38.39.75.42.98.09.78-1.14-.64-4.64-.64-4.64,0,0,1.89,2.18,1.24,4.62,0,0,1,.14,1.09-1.67.14-2.62-2.69-5.49-3.37-7.41,0,0-1.13,2.97-.53,6.07.23,1.17.56,2,.9,2.53-.79-.96-1.64-1.88-2.53-2.74-.09-.25-.34-.57-.98-.95-.03-.02-.06-.03-.08-.04-.34-.3-.68-.59-1.03-.87.33.15.59.08.68-.2.34-1.04-1.53-3.37-1.53-3.37,0,0,1.92,1.22,1.98,3.22,0,0,.79-.12.45-1.51-.48-2.01-3.27-3.55-4.21-4.86,0,0-.19,2.5.96,4.72.34.65.68,1.12.99,1.45-1.27-.97-2.61-1.85-4.02-2.63-.09-.11-.25-.22-.51-.33.39.08.62-.04.63-.33.03-1-2.22-2.59-2.22-2.59,0,0,2.02.59,2.58,2.34,0,0,.67-.31.01-1.45-.95-1.66-3.81-2.3-4.98-3.21,0,0,.48,2.26,2.07,3.93.4.42.77.72,1.1.94-.49-.22-1.87-.81-1.87-.65,0,.1.78.51,1.38.82-1.57.08-3.36,1.14-4.51,1.29,0,0,1.83,1.17,3.99,1.2,1.98.03,2.73-.61,2.33-1.05-.58-.65-3.11-.24-3.11-.24,0,0,1.47-.77,3.09-.24,1.64.93,3.18,2,4.62,3.2-1.97-.39-4.53.31-5.99.11,0,0,1.89,2.09,4.58,2.86,2.47.71,3.62.17,3.28-.52-.5-1.01-3.81-1.36-3.81-1.36,0,0,2.13-.48,3.98.77,1.48,1.48,2.81,3.12,3.97,4.88-1.84-.99-4.58-1.09-5.97-1.73,0,0,1.24,2.65,3.68,4.24,2.23,1.46,3.54,1.28,3.41.48-.19-1.16-3.37-2.52-3.37-2.52,0,0,2.31.17,3.75,2.03,1.07,2.02,1.92,4.18,2.53,6.43-1.5-1.62-3.87-2.88-4.88-4.07,0,0,0,3.33,1.76,6.13,1.61,2.57,3.05,3.01,3.29,2.13.36-1.29-2.27-4.21-2.27-4.21,0,0,2.29,1.28,2.9,3.88.2,1.42.3,2.87.3,4.35,0,1.05-.06,2.09-.16,3.12-.95-2.41-4.05-4.44-5.12-6.1,0,0-.45,3.38.96,6.48,1.28,2.83,2.69,3.48,3.05,2.62.54-1.26-1.73-4.59-1.73-4.59,0,0,2.19,1.64,2.42,4.4,0,0,0,0,0,0-.42,2.2-1.08,4.32-1.94,6.33h0c-.09-2.76-3.39-5.48-4.3-7.43,0,0-1.15,3.55-.2,6.75.87,2.93,2.43,3.42,2.9,2.63.69-1.16-1.08-4.69-1.08-4.69,0,0,1.92,1.88,1.78,4.61,0,0,.01,0,.03,0-1.09,2.14-2.41,4.13-3.94,5.94.03-.12.05-.25.07-.4.43-3.06-2.86-6.61-3.54-8.91,0,0-1.64,3.42-1.16,7.1.45,3.37,1.77,4.48,2.47,3.69,1.02-1.16-.34-5.35-.34-5.35,0,0,1.85,2.39,1.17,5.36-1.71,1.79-3.63,3.37-5.72,4.72.07-.12.14-.25.21-.39,1.51-3-.59-7.66-.47-10.23,0,0-2.86,2.98-3.65,6.91-.73,3.59.23,5.14,1.21,4.55,1.44-.87,1.52-5.59,1.52-5.59,0,0,1.03,3.02-.68,5.85-2.45,1.34-5.1,2.37-7.89,3.02l-.34,1.33-.02.06c1.46-.31,2.88-.73,4.27-1.23,1.3,1.35,5.73,1.63,5.73,1.63,0,0-3.7,1.02-6.26-1.18,0,0-.75,1.12,1.38,2.28,3.06,1.67,8.14-.06,10.84.23,0,0-2.91-3.07-6.99-4.13-.47-.12-.9-.21-1.3-.28,1.76-.88,3.42-1.93,4.98-3.11,1.6.93,5.8.1,5.8.1,0,0-3.26,1.89-6.24.43,0,0-.43,1.25,1.87,1.82,3.32.83,7.71-2.07,10.35-2.46,0,0-3.53-2.19-7.66-2.19-.55,0-1.04.03-1.49.08,1.23-1.16,2.36-2.42,3.39-3.76.05.06.1.12.18.17,1.46.95,5.85-.94,5.85-.94,0,0-2.7,2.45-5.81,1.69,0,0-.15,1.27,2.14,1.34,3.31.1,6.87-3.54,9.28-4.45,0,0-3.78-1.35-7.69-.5-1.13.24-2.01.56-2.66.9.93-1.39,1.75-2.86,2.45-4.39.06.04.13.08.22.1,1.6.4,4.92-2.66,4.92-2.66,0,0-1.64,3.03-4.65,3.32,0,0,.26,1.18,2.33.53,2.98-.94,5.02-5.3,6.89-6.86,0,0-3.8-.02-7.02,1.95-.7.43-1.27.86-1.71,1.25Z" />
    <path fill="#004098"
      d="M63.49,16.97c-25.65,0-46.52,20.87-46.52,46.52s20.87,46.52,46.52,46.52,46.52-20.87,46.52-46.52-20.87-46.52-46.52-46.52ZM63.49,109.16c-25.18,0-45.67-20.49-45.67-45.67S38.31,17.82,63.49,17.82s45.67,20.49,45.67,45.67-20.49,45.67-45.67,45.67Z" />
    <path fill="#004098"
      d="M16.49,83.51c-.73-.26-1.55-.26-2.31.05l.9,1.81c.75-.27,1.52.01,1.92.82.54,1.08-.1,2.24-1.44,2.9-1.33.66-2.6.59-3.19-.6-.38-.78-.14-1.54.47-1.95l-.89-1.81c-.77.5-1.31,1.22-1.47,2.09-.14.72-.03,1.56.39,2.4,1.08,2.18,3.43,2.78,5.6,1.71,2.19-1.08,3.07-3.34,2.01-5.48-.51-1.03-1.17-1.64-1.99-1.93Z" />
    <polygon fill="#004098"
      points="15.81 79.46 12.55 80.44 11.72 77.7 14.98 76.72 14.39 74.79 6.59 77.15 7.17 79.08 10.13 78.19 10.96 80.93 8 81.82 8.59 83.76 16.39 81.39 15.81 79.46" />
    <path fill="#004098"
      d="M13.81,70.07c-.3-2.25-1.57-3.22-3.44-2.98l-5.24.69.26,2,5.27-.69c.79-.1,1.42.26,1.54,1.19.13.98-.35,1.46-1.14,1.57l-5.31.7.26,2,5.24-.69c1.89-.25,2.85-1.52,2.55-3.79Z" />
    <path fill="#004098"
      d="M13.21,63.21l-3.8-.15c-.28-.01-1.34-.03-1.34-.03v-.02s.9-.41,1.12-.54l4.13-2.24.08-2.03-8.15-.31-.08,1.97,3.87.15c.28.01,1.27.03,1.27.03v.02s-.83.4-1.06.52l-4.19,2.26-.08,2.03,8.15.31.08-1.97Z" />
    <path fill="#004098"
      d="M9.51,56.33c1.22.25,2.35.09,3.25-.45.85-.51,1.45-1.36,1.68-2.49.2-.96.04-1.81-.67-2.5v-.02s.99.09.99.09l.29-1.39-4.29-.89-.69,3.33,1.45.3.31-1.5h.02c.69.23,1.25.99,1.04,2.02-.26,1.25-1.5,1.79-2.96,1.48-1.45-.3-2.41-1.19-2.14-2.5.18-.87.78-1.31,1.46-1.32l.4-1.92c-1.73-.09-3.08.91-3.5,2.97-.24,1.15-.04,2.16.5,2.96.6.92,1.62,1.57,2.87,1.83Z" />
    <path fill="#004098"
      d="M16.21,46.35l-3.53-1.4c-.26-.11-1.25-.47-1.25-.47v-.02s.99-.09,1.24-.14l4.64-.74.75-1.89-7.58-3.01-.73,1.83,3.6,1.43c.27.11,1.19.45,1.19.45v.02s-.92.1-1.18.14l-4.7.74-.75,1.89,7.58,3.01.73-1.83Z" />
    <path fill="#004098"
      d="M19.44,39.21l-1.02-1.16,1.48-2.44,1.51.35,1.1-1.82-8.5-1.7-1.07,1.78,5.46,6.73,1.05-1.74ZM16.06,35.34c-.29-.34-.82-.88-.82-.88v-.02s.73.22,1.16.32l2.01.49-.99,1.64-1.36-1.56Z" />
    <path fill="#004098"
      d="M24.3,31.95l-3.06-2.72c-.25-.22-1.25-1.06-1.25-1.06l.02-.02s1.11.6,1.39.73l3.92,1.92,1.11-1.25-2.38-3.68c-.16-.27-.89-1.29-.89-1.29l.02-.02s.95.89,1.2,1.11l3.07,2.73,1.23-1.38-6.1-5.41-1.82,2.05,2.01,3.12c.29.44,1.09,1.58,1.09,1.58l-.02.02s-1.22-.65-1.7-.88l-3.33-1.63-1.8,2.03,6.1,5.41,1.2-1.36Z" />
    <path fill="#004098"
      d="M37.74,20.3l-1.85-3.32c-.14-.25-.67-1.15-.67-1.15h.02s.82.54,1.04.66l4.06,2.36,1.77-.99-3.97-7.12-1.72.96,1.88,3.38c.14.25.64,1.09.64,1.09h-.02s-.77-.49-.99-.62l-4.11-2.4-1.77.99,3.97,7.12,1.72-.96Z" />
    <path fill="#004098"
      d="M44.9,15.19l2.69-.95.94,1.23,2-.71-5.49-6.72-1.96.69-.05,8.67,1.92-.68-.05-1.54ZM44.8,11.59c-.01-.44-.07-1.2-.07-1.2h.02s.41.62.68.97l1.24,1.66-1.81.64-.06-2.07Z" />
    <polygon fill="#004098"
      points="51.2 8.12 52.48 14.44 54.46 14.04 53.18 7.72 55.53 7.24 55.19 5.57 48.53 6.91 48.87 8.59 51.2 8.12" />
    <rect fill="#004098" x="57.34" y="5.32" width="2.02" height="8.16"
      transform="translate(-.62 5.49) rotate(-5.36)" />
    <path fill="#004098"
      d="M65.07,13.46c2.47.1,4.11-1.66,4.2-4.1.09-2.44-1.4-4.31-3.87-4.41-2.46-.1-4.09,1.66-4.19,4.1-.09,2.44,1.4,4.31,3.86,4.41ZM65.35,6.58c1.32.05,1.93,1.22,1.87,2.7-.06,1.48-.75,2.59-2.07,2.54-1.31-.05-1.94-1.21-1.88-2.69.06-1.48.77-2.6,2.09-2.55Z" />
    <path fill="#004098"
      d="M73.08,10.27c.06-.28.25-1.31.25-1.31h.02s.26.96.35,1.2l1.52,4.44,1.99.41,1.66-7.99-1.93-.4-.79,3.79c-.06.28-.24,1.24-.24,1.24h-.02s-.26-.89-.34-1.14l-1.53-4.5-1.99-.41-1.66,7.99,1.93.4.77-3.72Z" />
    <path fill="#004098"
      d="M80.1,16.01l.97-1.2,2.65,1.05-.09,1.54,1.97.78.25-8.67-1.93-.76-5.72,6.51,1.89.74ZM83.35,12.03c.28-.34.73-.95.73-.95h.02s-.1.75-.13,1.2l-.15,2.06-1.78-.7,1.31-1.61Z" />
    <polygon fill="#004098"
      points="92.49 20.26 89.34 18.4 92.62 12.85 90.88 11.82 86.73 18.84 91.62 21.73 92.49 20.26" />
    <path fill="#004098"
      d="M103.96,28.9l3.79-3.68-1.41-1.45-3.81,3.71c-.57.56-1.29.64-1.94-.04-.69-.71-.59-1.38-.02-1.94l3.84-3.73-1.41-1.45-3.79,3.68c-1.37,1.33-1.37,2.93.22,4.56,1.58,1.63,3.19,1.64,4.54.33Z" />
    <path fill="#004098"
      d="M104.01,33.73l3.13-2.16c.24-.16,1.09-.78,1.09-.78v.02s-.46.87-.56,1.1l-1.96,4.27,1.15,1.67,6.71-4.64-1.12-1.62-3.18,2.2c-.23.16-1.03.74-1.03.74v-.02s.41-.82.52-1.05l2-4.32-1.15-1.67-6.71,4.64,1.12,1.62Z" />
    <rect fill="#004098" x="107.6" y="37.36" width="8.15" height="2.02"
      transform="translate(-5.07 56.07) rotate(-27.58)" />
    <path fill="#004098"
      d="M110.76,46.37l8.58-.44-.74-1.91-4.45.36c-.63.06-1.48.17-1.48.17v-.02s.69-.48,1.2-.87l3.53-2.73-.76-1.96-6.64,5.45.75,1.95Z" />
    <polygon fill="#004098"
      points="113.23 55.56 114.9 55.19 113.97 51.06 115.67 50.68 116.45 54.16 117.99 53.81 117.21 50.33 118.63 50.01 119.55 54.07 121.17 53.71 119.81 47.67 111.86 49.46 113.23 55.56" />
    <path fill="#004098"
      d="M113.56,58.97l3.05-.2.08,1.22c.06.87-.33,1.28-1.07,1.43-.8.18-1.76.2-1.87.43l.13,1.96h.1c.08-.3,1.12-.25,2.17-.49.8-.17,1.22-.56,1.41-1.28h.03c.39.92,1.12,1.34,2.06,1.28,1.51-.1,2.27-1.38,2.16-3l-.25-3.89-8.14.52.13,2.01ZM120.11,58.55l.1,1.56c.05.77-.35,1.19-.94,1.23-.61.04-1.02-.35-1.07-1.14l-.1-1.51,2-.13Z" />
    <path fill="#004098"
      d="M119.6,65.51c-1.7-.16-2.27,1.29-2.74,2.67-.38,1.09-.57,1.73-1.22,1.67-.61-.06-.79-.73-.73-1.39.09-.97.48-1.47,1.31-1.48l.19-2.02c-1.8-.12-2.89,1.21-3.09,3.37-.18,1.87.63,3.42,2.33,3.58,1.74.16,2.33-1.16,2.82-2.63.39-1.19.58-1.8,1.15-1.75.45.04.72.54.65,1.24-.07.75-.47,1.19-1.1,1.21l-.18,1.97c1.71.08,2.63-1.21,2.8-2.97.17-1.82-.46-3.3-2.2-3.46Z" />
    <rect fill="#004098" x="115.57" y="71.03" width="2.02" height="8.16"
      transform="translate(18.38 173.02) rotate(-77.71)" />
    <polygon fill="#004098"
      points="117.63 80.4 111.52 78.37 110.88 80.29 117 82.32 116.24 84.59 117.87 85.13 120 78.69 118.38 78.15 117.63 80.4" />
    <path fill="#004098"
      d="M109.08,84.69l-.89,1.81,2.7,1.33,3.4,4.74.94-1.91-1.44-1.86c-.38-.49-.87-1.05-.87-1.05v-.02s.74.07,1.36.07h2.36s.97-1.99.97-1.99l-5.83.21-2.7-1.33Z" />
    <path fill="#004098"
      d="M63.49,0C28.48,0,0,28.48,0,63.49s28.48,63.49,63.49,63.49,63.49-28.48,63.49-63.49S98.5,0,63.49,0ZM63.49,126.13C28.95,126.13.86,98.03.86,63.49S28.95.86,63.49.86s62.64,28.1,62.64,62.64-28.1,62.64-62.64,62.64Z" />
    <path fill="#004098"
      d="M67.67,95.3l.49.58c3.76,1.25,4.38,2.22,4.38,2.22l2.89-1.48c-1.97-.97-4.16-1.68-6.45-2.26l-1.31.94Z" />
    <path fill="#004098"
      d="M58.01,94.37c-2.28.57-4.47,1.29-6.44,2.25l2.89,1.48s.62-.96,4.37-2.21l.49-.59-1.3-.93Z" />
  </g>
  <polygon fill="#001755"
    points="380.18 71.65 419.21 71.65 419.21 67.38 402.08 67.38 402.08 56.68 414.82 56.68 414.82 52.51 389.86 52.51 389.86 39.3 414.44 39.3 414.44 35.14 384.95 35.14 384.95 56.68 397.16 56.68 397.16 67.38 380.18 67.38 380.18 71.65" />
  <path fill="#001755"
    d="M424.5,67.68c4.91-2.66,8.45-7.94,10.35-14.36,1.86,6.08,5.34,11.05,10.21,13.61l2.91-4.17c-6.58-3.21-10.69-11.45-10.69-19.89v-7.48h-4.96v7.48c0,8.49-4.2,17.23-10.93,20.69l3.1,4.12Z" />
  <polygon fill="#001755"
    points="443.3 50.76 452.51 50.76 452.51 77.12 457.47 77.12 457.47 31.62 452.51 31.62 452.51 46.54 443.3 46.54 443.3 50.76" />
  <path fill="#001755"
    d="M463.24,59.09c7.49,0,17.65-.25,26.63-1.91l-.33-3.77c-4.25.7-8.88,1-13.36,1.21v-9.14h-4.87v9.29c-3.05.1-6.01.1-8.59.1l.53,4.22Z" />
  <polygon fill="#001755"
    points="497.12 31.72 492.16 31.72 492.16 65.77 497.12 65.77 497.12 50.35 502.85 50.35 502.85 46.09 497.12 46.09 497.12 31.72" />
  <polygon fill="#001755"
    points="469.21 62.76 469.21 76.22 498.51 76.22 498.51 72 474.17 72 474.17 62.76 469.21 62.76" />
  <path fill="#001755"
    d="M485.96,51.16c1.05-5.88,1.05-10.35,1.05-13.41v-2.61h-21.66v4.22h16.84c-.05,2.81-.19,6.38-1.05,11.25l4.82.55Z" />
  <polygon fill="#001755"
    points="382.19 87.67 382.19 97.57 387.66 97.57 387.66 96.25 383.67 96.25 383.67 87.67 382.19 87.67" />
  <rect fill="#001755" x="388.81" y="90.18" width="1.47" height="7.39" />
  <path fill="#001755"
    d="M389.54,86.96c-.54,0-.91.36-.91.91s.37.93.91.93.92-.36.92-.93-.38-.91-.92-.91Z" />
  <path fill="#001755"
    d="M393.56,86.86h-1.47v10.71h1.15l.14-.77h.04c.6.59,1.3.94,1.94.94,1.58,0,3.03-1.45,3.03-3.99,0-2.27-1.01-3.76-2.79-3.76-.74,0-1.49.42-2.09.97l.05-1.26v-2.83ZM393.56,92.18c.57-.61,1.11-.9,1.66-.9,1.17,0,1.65.95,1.65,2.5,0,1.73-.77,2.69-1.79,2.69-.43,0-.98-.17-1.52-.67v-3.61Z" />
  <path fill="#001755"
    d="M401.09,91.51h-.04l-.12-1.33h-1.2v7.39h1.47v-4.61c.43-1.17,1.12-1.59,1.7-1.59.28,0,.46.04.7.12l.27-1.34c-.22-.11-.45-.16-.79-.16-.75,0-1.5.56-1.99,1.52Z" />
  <path fill="#001755"
    d="M405.88,97.74c.84,0,1.6-.44,2.24-1.02h.05l.12.85h1.2v-4.45c0-1.96-.8-3.13-2.56-3.13-1.12,0-2.11.48-2.84.97l.55,1.05c.6-.4,1.29-.75,2.03-.75,1.03,0,1.33.75,1.34,1.61-2.92.34-4.2,1.16-4.2,2.74,0,1.3.86,2.14,2.07,2.14ZM408.02,93.85v1.81c-.57.55-1.07.86-1.69.86s-1.1-.3-1.1-1.02c0-.83.7-1.4,2.79-1.65Z" />
  <path fill="#001755"
    d="M412.53,91.51h-.04l-.12-1.33h-1.2v7.39h1.47v-4.61c.43-1.17,1.12-1.59,1.7-1.59.28,0,.46.04.7.12l.27-1.34c-.22-.11-.45-.16-.79-.16-.75,0-1.5.56-1.99,1.52Z" />
  <path fill="#001755"
    d="M416.53,99.41c-.18,0-.38-.07-.51-.11l-.28,1.21c.24.09.52.15.88.15,1.48,0,2.22-1.06,2.77-2.65l2.58-7.83h-1.43l-1.12,3.8c-.18.67-.37,1.41-.55,2.08h-.06c-.22-.69-.43-1.42-.64-2.08l-1.3-3.8h-1.51l2.78,7.34-.14.51c-.26.79-.7,1.38-1.47,1.38Z" />
  <path fill="#001755"
    d="M158.29,89.13c1.11,0,1.85.71,1.98,1.64h2.59c-.13-1.16-.66-2.18-1.57-2.86-.75-.57-1.77-.91-2.99-.91-3.12,0-5.16,2.34-5.16,5.43s2.1,5.39,5.17,5.39c1.48,0,2.55-.41,3.36-1.18.72-.68,1.19-1.63,1.26-2.66h-2.59c-.12,1-.88,1.73-2.04,1.73-1.55,0-2.52-1.38-2.52-3.28s.81-3.3,2.51-3.3Z" />
  <path fill="#001755"
    d="M164,87.2v10.38h2.39v-4.11c0-.91.53-1.57,1.32-1.57s1.17.54,1.17,1.32v4.36h2.39v-4.83c0-1.66-.97-2.82-2.61-2.82-1.04,0-1.69.42-2.23,1.13h-.04v-3.86h-2.39Z" />
  <path fill="#001755"
    d="M173.18,90.15v4.88c0,1.66.91,2.77,2.64,2.77,1.04,0,1.7-.41,2.24-1.13h.04v.91h2.29v-7.43h-2.39v4.15c0,.89-.5,1.5-1.32,1.5-.76,0-1.13-.45-1.13-1.26v-4.38h-2.37Z" />
  <path fill="#001755"
    d="M189.68,92.74c0-1.66-.97-2.82-2.61-2.82-1.04,0-1.76.44-2.32,1.23h-.04v-1.02h-2.3v7.43h2.39v-4.11c0-.91.53-1.57,1.32-1.57s1.17.54,1.17,1.32v4.36h2.39v-4.83Z" />
  <path fill="#001755"
    d="M194.81,98.48c-.79,0-1.19-.33-1.32-.73h-2.32c.23,1.55,1.6,2.4,3.66,2.4,1.11,0,2.1-.25,2.76-.83.6-.54,1-1.35,1-2.47v-6.71h-2.29v.8h-.03c-.44-.62-1.11-1.02-2.11-1.02-1.86,0-3.15,1.54-3.15,3.72s1.57,3.53,3.25,3.53c.91,0,1.48-.36,1.92-.86h.06v.74c0,.9-.43,1.42-1.44,1.42ZM194.82,95.42c-.89,0-1.48-.73-1.48-1.84s.59-1.86,1.48-1.86c1,0,1.52.84,1.52,1.84s-.48,1.86-1.52,1.86Z" />
  <path fill="#001755"
    d="M207.58,97.58v-4.83c0-1.66-.97-2.82-2.61-2.82-1.04,0-1.76.44-2.32,1.23h-.04v-1.02h-2.3v7.43h2.39v-4.11c0-.91.53-1.57,1.32-1.57s1.17.54,1.17,1.32v4.36h2.39Z" />
  <path fill="#001755"
    d="M212.07,93.17c-1.55.2-2.87.7-2.87,2.34,0,1.47,1.07,2.27,2.56,2.27,1.13,0,1.79-.39,2.23-1.02h.03c.06.38.13.67.25.83h2.32v-.1c-.21-.13-.26-.46-.26-1.06v-3.75c0-.93-.31-1.66-.95-2.12-.54-.41-1.3-.61-2.43-.61-2.27,0-3.34,1.18-3.4,2.56h2.2c.07-.62.45-.96,1.22-.96.72,0,1.03.32,1.03.8,0,.51-.5.65-1.91.83ZM214.03,94.04v.89c0,.8-.62,1.34-1.51,1.34-.59,0-1.03-.23-1.03-.83s.38-.8,1.3-1c.48-.12.92-.23,1.23-.39Z" />
  <path fill="#001755"
    d="M225.08,97.58v-4.17c0-.89.43-1.51,1.19-1.51.72,0,1.06.46,1.06,1.26v4.41h2.39v-4.83c0-1.67-.85-2.82-2.55-2.82-.97,0-1.77.41-2.36,1.31h-.03c-.38-.8-1.13-1.31-2.11-1.31-1.08,0-1.8.51-2.27,1.28h-.04v-1.06h-2.29v7.43h2.39v-4.17c0-.89.44-1.51,1.19-1.51s1.05.46,1.05,1.26v4.41h2.39Z" />
  <path fill="#001755"
    d="M240.69,92.41l-3.11-5.21h-2.61v10.38h2.54v-4.83c0-.36-.03-1.7-.03-1.7h.03s.57,1.12.75,1.39l3.08,5.14h2.61v-10.38h-2.54v4.92c0,.36.03,1.61.03,1.61h-.03s-.56-1.03-.72-1.32Z" />
  <path fill="#001755"
    d="M252.59,92.67c0-.93-.31-1.66-.95-2.12-.54-.41-1.3-.61-2.43-.61-2.27,0-3.34,1.18-3.4,2.56h2.2c.07-.62.45-.96,1.22-.96.72,0,1.03.32,1.03.8,0,.51-.5.65-1.91.83-1.55.2-2.87.7-2.87,2.34,0,1.47,1.07,2.27,2.56,2.27,1.13,0,1.79-.39,2.23-1.02h.03c.06.38.13.67.25.83h2.32v-.1c-.21-.13-.26-.46-.26-1.06v-3.75ZM250.3,94.92c0,.8-.62,1.34-1.51,1.34-.59,0-1.03-.23-1.03-.83s.38-.8,1.3-1c.48-.12.92-.23,1.23-.39v.89Z" />
  <path fill="#001755"
    d="M256.95,87.79h-2.33v2.35h-1v1.48h1v3.99c0,1.6,1,2.05,2.39,2.05.64,0,1.1-.06,1.3-.12v-1.73c-.09,0-.32.01-.53.01-.51,0-.84-.15-.84-.73v-3.48h1.36v-1.48h-1.36v-2.35Z" />
  <rect fill="#001755" x="259.47" y="87.2" width="2.39" height="1.92" />
  <rect fill="#001755" x="259.47" y="90.15" width="2.39" height="7.43" />
  <path fill="#001755"
    d="M270.98,93.88c0-2.24-1.58-3.93-4-3.93s-4.02,1.7-4.02,3.93,1.61,3.93,4.02,3.93,4-1.7,4-3.93ZM265.38,93.88c0-1.35.54-2.26,1.58-2.26s1.6.91,1.6,2.26-.56,2.25-1.6,2.25-1.58-.9-1.58-2.25Z" />
  <path fill="#001755"
    d="M276.73,89.93c-1.04,0-1.76.44-2.32,1.23h-.04v-1.02h-2.3v7.43h2.39v-4.11c0-.91.53-1.57,1.32-1.57s1.17.54,1.17,1.32v4.36h2.39v-4.83c0-1.66-.97-2.82-2.61-2.82Z" />
  <path fill="#001755"
    d="M283.22,97.77c1.13,0,1.79-.39,2.23-1.02h.03c.06.38.13.67.25.83h2.32v-.1c-.2-.13-.26-.46-.26-1.06v-3.75c0-.93-.31-1.66-.95-2.12-.54-.41-1.3-.61-2.43-.61-2.27,0-3.34,1.18-3.4,2.56h2.2c.07-.62.45-.96,1.22-.96.72,0,1.03.32,1.03.8,0,.51-.5.65-1.91.83-1.55.2-2.87.7-2.87,2.34,0,1.47,1.07,2.27,2.56,2.27ZM284.27,94.43c.48-.12.92-.23,1.23-.39v.89c0,.8-.62,1.34-1.51,1.34-.59,0-1.03-.23-1.03-.83s.38-.8,1.3-1Z" />
  <rect fill="#001755" x="289.54" y="87.2" width="2.42" height="10.38" />
  <path fill="#001755"
    d="M297.22,87.2v6.72c0,2.42,1.47,3.85,4.4,3.85s4.37-1.45,4.37-3.85v-6.72h-2.59v6.77c0,1.02-.57,1.74-1.77,1.74-1.28,0-1.8-.68-1.8-1.7v-6.81h-2.59Z" />
  <path fill="#001755"
    d="M307.78,90.15v7.43h2.39v-4.11c0-.91.53-1.57,1.32-1.57s1.17.54,1.17,1.32v4.36h2.39v-4.83c0-1.66-.97-2.82-2.61-2.82-1.04,0-1.76.44-2.32,1.23h-.04v-1.02h-2.3Z" />
  <rect fill="#001755" x="316.72" y="90.15" width="2.39" height="7.43" />
  <rect fill="#001755" x="316.72" y="87.2" width="2.39" height="1.92" />
  <path fill="#001755"
    d="M324.56,93.5c-.22.74-.41,1.5-.41,1.5h-.03s-.19-.76-.41-1.5l-1.03-3.35h-2.46l2.59,7.43h2.58l2.59-7.43h-2.39l-1.04,3.35Z" />
  <path fill="#001755"
    d="M334.89,90.86c-.65-.58-1.5-.93-2.57-.93-2.29,0-3.85,1.7-3.85,3.92s1.52,3.95,4,3.95c.95,0,1.71-.25,2.34-.68.66-.45,1.1-1.09,1.26-1.76h-2.33c-.21.46-.62.74-1.25.74-.98,0-1.54-.62-1.69-1.63h5.39c.01-1.51-.43-2.8-1.32-3.61ZM330.83,93.06c.16-.89.63-1.45,1.54-1.45.78,0,1.33.57,1.42,1.45h-2.96Z" />
  <path fill="#001755"
    d="M337.31,90.15v7.43h2.39v-3.34c0-1.61.94-2.32,2.4-2.12h.06v-2.03c-.1-.04-.25-.06-.47-.06-.91,0-1.52.39-2.05,1.28h-.04v-1.16h-2.29Z" />
  <path fill="#001755"
    d="M346.39,96.27c-.79,0-1.29-.36-1.38-1.1h-2.26c.07,1.64,1.45,2.64,3.65,2.64,1.96,0,3.42-.84,3.42-2.47,0-1.9-1.55-2.24-2.87-2.45-.95-.17-1.8-.25-1.8-.77,0-.46.45-.68,1.04-.68.66,0,1.11.2,1.2.87h2.2c-.12-1.47-1.26-2.38-3.39-2.38-1.77,0-3.24.81-3.24,2.38,0,1.74,1.39,2.09,2.7,2.31,1,.17,1.91.25,1.91.91,0,.48-.45.74-1.17.74Z" />
  <rect fill="#001755" x="351.19" y="90.15" width="2.39" height="7.43" />
  <rect fill="#001755" x="351.19" y="87.2" width="2.39" height="1.92" />
  <path fill="#001755"
    d="M355.89,87.79v2.35h-1v1.48h1v3.99c0,1.6,1,2.05,2.39,2.05.64,0,1.1-.06,1.3-.12v-1.73c-.09,0-.32.01-.53.01-.51,0-.84-.15-.84-.73v-3.48h1.36v-1.48h-1.36v-2.35h-2.33Z" />
  <path fill="#001755"
    d="M364.89,93.31c-.23.73-.44,1.71-.44,1.71h-.03s-.23-.99-.47-1.71l-1.01-3.16h-2.52l2.21,5.72c.31.78.45,1.22.45,1.54,0,.51-.28.78-.98.78h-.82v1.84h1.55c1.51,0,2.23-.61,2.83-2.35l2.59-7.53h-2.39l-.98,3.16Z" />
  <path fill="#001755"
    d="M168.47,57.94c-6.09,1.11-10.14,5.43-10.14,10.29,0,5.64,5.46,10.57,13.23,10.57s13.23-4.93,13.23-10.57c0-4.71-3.81-8.91-9.58-10.17v-3.04h16.09v-5.93h-38.91v5.93h16.08v2.93ZM177.78,68.23c0,2.43-2.57,4.54-6.22,4.54s-6.22-2.12-6.22-4.54,2.57-4.54,6.22-4.54,6.22,2.12,6.22,4.54Z" />
  <polygon fill="#001755"
    points="353.62 48.94 346.88 48.94 346.88 66.63 341.69 66.63 341.69 48.94 334.95 48.94 334.95 66.63 328.39 66.63 328.39 72.72 368.26 72.72 368.26 66.63 353.62 66.63 353.62 48.94" />
  <path fill="#001755"
    d="M196.38,48.38c0,3.36,2.72,6.08,6.08,6.08h17.52v-6.09h-16.86v-16.57h-6.74v16.58Z" />
  <path fill="#001755"
    d="M257.58,37.89v-6.09h-18.33v22.6c0,3.36,2.72,6.08,6.08,6.08h12.25v-6.09h-11.59v-16.5h11.59Z" />
  <polygon fill="#001755"
    points="236.03 39.36 230.01 39.36 230.01 31.8 223.27 31.8 223.27 54.46 230.01 54.46 230.01 45.45 236.03 45.45 236.03 39.36" />
  <polygon fill="#001755"
    points="313.64 31.8 313.64 54.46 320.38 54.46 320.38 45.45 326.4 45.45 326.4 39.36 320.38 39.36 320.38 31.8 313.64 31.8" />
  <polygon fill="#001755"
    points="278.17 77.12 278.17 31.8 271.43 31.8 271.43 46.91 267.76 46.91 267.76 31.8 261.02 31.8 261.02 77.12 267.76 77.12 267.76 53 271.43 53 271.43 77.12 278.17 77.12" />
  <path fill="#001755"
    d="M206,77.12h24.01v-18.96h-30.1v12.87c0,3.36,2.72,6.08,6.08,6.08ZM206.65,64.25h16.62v6.77h-16.62v-6.77Z" />
  <path fill="#001755"
    d="M320.38,64.3c0-3.36-2.72-6.08-6.08-6.08h-24.01v6.09h23.36v12.81h6.74v-12.82Z" />
  <path fill="#001755"
    d="M330.04,38.7h29.45v20.49h6.74v-20.5c0-3.36-2.72-6.08-6.08-6.08h-30.1v6.09Z" />
  <path fill="#001755"
    d="M297.57,55.54c6.35,0,11.5-4.73,11.5-10.57,0-2.72-1.13-5.2-2.97-7.07h5v-6.09h-10.15v-4.97h-6.74v4.97h-10.15v6.09h5c-1.84,1.87-2.97,4.35-2.97,7.07,0,5.84,5.15,10.57,11.5,10.57ZM297.57,49.41c-2.62,0-4.75-1.99-4.75-4.44s2.13-4.44,4.75-4.44,4.75,1.99,4.75,4.44-2.13,4.44-4.75,4.44Z" />
  <path fill="#001755"
    d="M154.01,41.64v5.87c9.69,0,15.08-3.07,17.83-6.9,2.76,3.84,8.14,6.9,17.83,6.9v-5.87c-6.55,0-10.17-1.66-12.13-3.91h12.13v-5.93h-14.46v-4.97h-6.74v4.97h-14.46v5.93h12.13c-1.95,2.25-5.58,3.91-12.13,3.91Z" />
</svg>